<?xml version="1.0" encoding="UTF-8"?>
<svg id="Layer_2" data-name="Layer 2" xmlns="http://www.w3.org/2000/svg" viewBox="0 0 104.73 104.29">
  <defs>
    <style>
      .cls-1 {
        fill: #fff;
      }

      .cls-2 {
        fill: #ed5339;
      }
    </style>
  </defs>
  <g id="Layer_1-2" data-name="Layer 1">
    <g>
      <path class="cls-2" d="M100.24,15.39l-11.98,6.39c-2.68-2.86-5.71-5.38-9-7.54L79.81.01c-13.05-.34-19.83,5.51-20.96,6.58-1.7-.24-3.41-.41-5.16-.47h-2.64c-1.75.06-3.47.23-5.17.47C44.76,5.52,37.97-.33,24.93.01l.55,14.23c-3.29,2.16-6.32,4.68-9,7.54l-11.99-6.39C-2.79,21.37.98,36.91.98,36.91l.06,1.49c.05,9.35.24,28.23.93,40.83.34,6.25,6.51,8.41,10.73,10.55,1.57.8,3.93,1.88,6.79,3.11,8.21,3.56,20.58,8.34,30.36,11.05,1.65.46,3.39.46,5.04,0,9.77-2.71,22.14-7.49,30.36-11.05,2.86-1.23,5.22-2.31,6.79-3.11,4.22-2.14,10.39-4.3,10.73-10.55.69-12.6.88-31.48.93-40.83l.06-1.49s3.77-15.54-3.52-21.52ZM36.32,56.11c-1.06,2.64-3.17,4.76-5.81,5.82-9.84,3.97-19.13-5.32-15.16-15.16,1.06-2.64,3.19-4.76,5.84-5.81,9.82-3.89,19.04,5.35,15.13,15.15ZM52.37,92.21c-.7-1-8.58-26.15-8.3-32.04.83-9.23,15.77-9.23,16.6,0,.24,6.03-7.55,30.85-8.3,32.04ZM74.23,61.93c-2.64-1.06-4.75-3.18-5.81-5.82-3.91-9.8,5.31-19.04,15.13-15.15,2.65,1.05,4.78,3.17,5.84,5.81,3.97,9.84-5.32,19.13-15.16,15.16Z"/>
      <path class="cls-1" d="M60.67,60.17c-.83-9.23-15.77-9.23-16.6,0-.28,5.89,7.6,31.04,8.3,32.04.75-1.19,8.54-26.01,8.3-32.04Z"/>
      <path class="cls-1" d="M21.19,40.96c-2.65,1.05-4.78,3.17-5.84,5.81-3.97,9.84,5.32,19.13,15.16,15.16,2.64-1.06,4.75-3.18,5.81-5.82,3.91-9.8-5.31-19.04-15.13-15.15Z"/>
      <path class="cls-1" d="M89.39,46.77c-1.06-2.64-3.19-4.76-5.84-5.81-9.82-3.89-19.04,5.35-15.13,15.15,1.06,2.64,3.17,4.76,5.81,5.82,9.84,3.97,19.13-5.32,15.16-15.16Z"/>
      <circle cx="27.64" cy="53.14" r="7.48" transform="translate(-11.47 7.77) rotate(-13.28)"/>
      <circle cx="77.08" cy="53.14" r="7.48" transform="translate(-15 70.07) rotate(-45)"/>
    </g>
  </g>
</svg>